<svg width="15" height="15" viewBox="0 0 15 15" fill="none" xmlns="http://www.w3.org/2000/svg">
<g clip-path="url(#clip0_38499_18)">
<path d="M7.50061 1.89671C9.26233 0.314993 11.9848 0.367492 13.682 2.06771C15.3785 3.76868 15.437 6.47763 13.859 8.24459L7.49911 14.6135L1.14073 8.24459C-0.437237 6.47763 -0.377988 3.76418 1.31773 2.06771C3.01645 0.369742 5.73365 0.312743 7.50061 1.89671V1.89671ZM12.62 3.12744C11.495 2.00096 9.68007 1.95521 8.5026 3.01269L7.50136 3.91118L6.49938 3.01344C5.31816 1.95446 3.50694 2.00096 2.37896 3.12894C1.26148 4.24642 1.20523 6.03514 2.23496 7.21711L7.49986 12.4903L12.7648 7.21786C13.7952 6.03514 13.739 4.24867 12.62 3.12744V3.12744Z" fill="white"/>
<path d="M7 7L8.5 5.5L6.26223 3.26223M12 5.5C11.6 5.5 11.5 5.83333 11.5 6H11C10.9034 6 10.7173 6 10.5 6M12 5.5C10.5 9 13 5 11.5 6.5C10.9598 7.04025 10.5 7.71467 10.5288 7M12 5.5L12.1618 5M10.5 6C10.3423 6 10.1682 6 10 6C9.6 6 9.5 5.66667 9.5 5.5C9.12509 5.54157 8.30022 5.59978 8 5.5C7.69978 5.40022 7.54157 5.45843 7.5 5.5C7.37097 5.5 7.02217 5.5 6.5 5.5M10.5 6C10.4084 6.36653 10.357 6.84389 10.5288 7M10.5 5V4.5L10.3431 4.25M10 4L9.5 3.5H9C8.5 3.5 8 3 8 3.5C8 4 7.5 4 8 4.5C8.16821 4.66821 8.34231 4.78337 8.5 4.86034M10 4C10.5 4 11.5 4 12 4C12.4 4 12.8333 3.66667 13 3.5V4L12.8 5M10 4L10.3431 4.25M9 4.5V5C8.90342 5 8.71729 4.96642 8.5 4.86034M9 4.5C9.4 4.5 8.5 3.5 8 3H9H9.33333M9 4.5L8.75 4.25M8.5 4L8.75 4.25M4.25 2.5H4.5V3L5.5 3.75M4.25 2.5H4L4.5 2L4.25 2.5ZM4.5 4.5C5.16667 4.66667 6.5 5.1 6.5 5.5M6.5 5.5C6.3477 5.5 6.18065 5.5 6 5.5C5 5.5 5.5 5.5 5 5.5C4.6 5.5 4.5 5.5 4.5 5.5L3 5H1.5V5.5V6H2L7.5 12.5L7 11.5C6.83333 11.5 6.5 11.4 6.5 11C6.5 10.5 6 10.5 5 9.5C4.5 9 4 9 3.5 8.5C3.1 8.1 3 8 3 8C2.66667 7.5 2 6.2 2 5C2 4.6 2.33333 3.83333 2.5 3.5L3 2.5L4 3L4.5 3.5L5.5 2.5L6 3L6.26223 3.26223M6.5 7L7 7.5M7 7.5V8.5C7.16667 8.5 7.5 8.6 7.5 9C7.5 9.4 7.5 10.5 7.5 11L8 12L9 9.75M7 7.5C7 7 7 7 7.5 6.81315C7.9 6.66368 7.83333 6.75087 7.75 6.81315C7.75 6.81315 8 7 8.5 7C9 7 8.75 7.30029 8.5 7.5C8.3 7.65977 8.08333 7.92212 8 8.03333M9.5 4C9.16108 4.25497 8.85878 4.2729 8.75 4.25M10 3.5H10.5M10.5 3.5V3H11M10.5 3.5L11 3M11 3L11.1111 5M11.1111 5L12 3L12.5 3.5V4L13 4.5C13.4 4.9 13.1667 5.33333 13 5.5V6C13 6.4 12.6667 6.5 12.5 6.5L12.8 5M11.1111 5L9.66434 8.25524M12 5C11.5 5 12 4.5 12 4.5M11.5 5.5C11.6389 5.16667 11.8333 4.5 11.5 4.5C11.0833 4.5 10 5 11 5C11.4992 5 11.8945 5 12.1618 5M12.8 5H12.5C12.4373 5 12.3228 5 12.1618 5M12.5 3L9.68012 5.63189M11.5 8.5L10.5 8.36667M11.5 8.5C11.7206 8.34444 12.1618 7.97667 12.1618 7.75M11.5 8.5L11.3848 8.25524M2.87014 3.6493L2.5 5.5L3 6V6.5H4.38889M2.87014 3.6493L3 3L4 3.5C4.04365 3.66667 4.06786 4.05 3.81548 4.25C3.5631 4.45 3.71032 4.83333 3.81548 5L4 7.5L4.69231 7.59231M2.87014 3.6493L4.25 3.82537L6 5L9.5 4.25L11 7.4375M4.5 5L4.25 4.5L5.61005 7.71467M9.68012 5.63189L8.75 6.5H8M9.68012 5.63189L9.66434 5.75179M7.75 8L8 8.03333M7.75 8L7.625 7.75M7.75 8L5.61005 7.71467M8 8.03333L9.66434 8.25524M7.625 7.75L7.5 7.5L7.75 7.75H7.625ZM7.5 7C7.10604 7.16845 5.59397 6.94563 4.88718 6.81315C5.5 7.45455 5.81378 7.25 6 7.5C6.18622 7.75 6.5 7.56667 6.5 8.03333M6.5 8.03333C6.5 8.5 5.72658 9.21226 5.94231 8.5M6.5 8.03333C7.78615 8.3142 7.75 7.26782 8 6.5M5.94231 8.5L7 11L4.25 6L4.38889 6.5M5.94231 8.5L5.61005 7.71467M5.61005 7.71467L4.69231 7.59231M4.69231 7.59231L5.5 10.5L7.75 8.53125M4.69231 7.59231L7.75 8.53125M4.69231 7.59231L4.38889 6.5M7.75 8.53125L8 8.3125M7.75 8.76171C7.625 9.5 7.75 9.66682 7.75 9.83341C7.75 9.96668 7.91667 10.3333 8 10.5H8.5C8.58333 10.2092 8.75 9.56484 8.75 9.3138C8.75 9.06276 8.75 8.66667 8.75 8.5C8.66667 8.33333 8.5 8.1 8.5 8.5C8.19972 9.3138 8.25 9.86589 8 9.3138C7.75 8.76171 8 8.125 8 8.3125M8 8.3125L9.5 7L9.66434 5.75179M9 8.76171C9.19387 9.3138 9.11111 9.5 9 9.75M9 9.75L9.33333 9M9 10.5L8.75 10.8726L9.5 10.5L10 9.83341L10.3431 9.75C10.307 9.57943 10.2877 9.19063 10.5 9C10.7123 8.80937 10.5884 8.49835 10.5 8.36667M10.5 8.36667L9.66434 8.25524M9.33333 9C9.5 9.3138 9.5 9.6276 10 9.3138C10.5 9 10.5 9 10 9C9.5 9 9.32867 8.21049 9.66434 8.25524M9.33333 9L9.66434 8.25524M11 8C11 7.8 11 7.54167 11 7.4375M11 7.4375L11.3848 8.25524M10.5288 7L10.5082 7.71467M10.5082 7.71467L10.5 8H10C9.61822 7.89312 9.18538 7.68641 10.5082 7.71467ZM11.3848 8.25524C11.477 7.85105 11.8333 7.54167 12 7.4375L12.5 7C12.4993 6.80781 12.5281 6.50139 12.6489 6.81315C12.8 7.20287 12.8 6.81315 12.5 7.4375M12.1618 6.09869C11.25 6 9.82867 5.70358 9.66434 5.75179M8 6.5H6H5H4.38889M4.38889 6.5C5.5 5.63189 7.23473 4.907 8.5 4.86034M10.3431 4.25C10.451 3.66667 10.4 2.6 9.33333 3M9.33333 3H10L11 2.5H12L9 2L6.5 4.5L5.5 3.75M6.26223 3.26223C5.61005 3.5 5.65815 3.67463 5.5 3.75" stroke="white"/>
</g>
<defs>
<clipPath id="clip0_38499_18">
<rect width="15" height="15" fill="white"/>
</clipPath>
</defs>
</svg>
